<svg fill="none" height="76" viewBox="0 0 76 76" width="76" xmlns="http://www.w3.org/2000/svg" xmlns:xlink="http://www.w3.org/1999/xlink"><clipPath id="a"><path d="m0 0h76v76h-76z"/></clipPath><g clip-path="url(#a)"><path d="m0 0h76v76h-76z" fill="#ebf614"/><path d="m13.6875 42c-2.8125 0-5.25-.5312-7.3125-1.5938-2.0625-1.0833-3.66667-2.5312-4.8125-4.3437-1.125-1.8125-1.6875-3.8021-1.6875-5.9687v-19c0-2.18755.5625-4.17713 1.6875-5.9688 1.14583-1.8125 2.75-3.25 4.8125-4.3125 2.0625-1.083333 4.5-1.625 7.3125-1.625h9.625c2.8125 0 5.25.541667 7.3125 1.625 2.0833 1.0625 3.6875 2.5 4.8125 4.3125 1.125 1.79167 1.6875 3.78125 1.6875 5.9688v19c0 2.1666-.5625 4.1562-1.6875 5.9687s-2.7292 3.2604-4.8125 4.3437c-2.0625 1.0626-4.5 1.5938-7.3125 1.5938zm-1.6563-14.1562h15.6876v-3.25h-14.4063v-5.375c.0625-.25.1042-.5313.125-.8438.0208-.3333.0625-.6458.125-.9375l2.25-.5313h7.5l3.625-1.0312 1.4063-1.3438.4687-2.6874v-4.7813l-.4687-2.625-1.9688-2-3.2188-.4375h-7.5312l-3.2188.4375-1.9687 2-.5 3.3125 3.3125.34375.375-2.4375 2.1875-.34375h7.1563l2.1874.34375.3126 1.84375v3.9062c-.1042.3334-.1771.6459-.2188.9376-.0417.2916-.1146.5937-.2188.9062l-2.0624.5312h-7.4688l-3.6562 1.0313-1.4063 1.4063-.375 2.625v7.0312zm40.6563 14.1562c-2.8125 0-5.25-.5312-7.3125-1.5938-2.0625-1.0833-3.6667-2.5312-4.8125-4.3437-1.125-1.8125-1.6875-3.8021-1.6875-5.9687v-19c0-2.18755.5625-4.17713 1.6875-5.9688 1.1458-1.8125 2.75-3.25 4.8125-4.3125 2.0625-1.083333 4.5-1.625 7.3125-1.625h9.625c2.8125 0 5.25.541667 7.3125 1.625 2.0833 1.0625 3.6875 2.5 4.8125 4.3125 1.125 1.79167 1.6875 3.78125 1.6875 5.9688v19c0 2.1666-.5625 4.1562-1.6875 5.9687s-2.7292 3.2604-4.8125 4.3437c-2.0625 1.0626-4.5 1.5938-7.3125 1.5938zm1.875-14.1562h8.375l3.1875-.375 2-1.9688.4375-2.6875v-15.75l-.4375-2.625-2-2-3.1875-.4375h-8.375l-3.2187.4375-1.9688 2-.375 2.625v15.75l.375 2.6875 2.0312 1.9688zm.1875-3.3126-2.0625-.3124-.4375-1.875v-14.9688l.3125-1.71875 2.1875-.34375h8l2.1875.34375.3125 1.84375v14.9688l-.4688 1.75-2.0312.3124zm-41.0625 61.4688c-2.8125 0-5.25-.5312-7.3125-1.5938-2.0625-1.0833-3.66667-2.5312-4.8125-4.3437-1.125-1.8125-1.6875-3.8021-1.6875-5.9687v-19c0-2.1876.5625-4.1771 1.6875-5.9688 1.14583-1.8125 2.75-3.25 4.8125-4.3125 2.0625-1.0833 4.5-1.625 7.3125-1.625h9.625c2.8125 0 5.25.5417 7.3125 1.625 2.0833 1.0625 3.6875 2.5 4.8125 4.3125 1.125 1.7917 1.6875 3.7812 1.6875 5.9688v19c0 2.1666-.5625 4.1562-1.6875 5.9687s-2.7292 3.2604-4.8125 4.3437c-2.0625 1.0626-4.5 1.5938-7.3125 1.5938zm8.5313-14.1562h3.3124v-6.0626h4.8126v-3.3437h-4.8126v-16.4375h-3.3124v16.5h-5.125l-2.1876-.3125-.3124-1.8437v-14.3438h-3.3126v14.7812l.4376 2.625 1.9687 2 3.2187.375h5.3126zm30.4687 14.1562c-2.8125 0-5.25-.5312-7.3125-1.5938-2.0625-1.0833-3.6667-2.5312-4.8125-4.3437-1.125-1.8125-1.6875-3.8021-1.6875-5.9687v-19c0-2.1876.5625-4.1771 1.6875-5.9688 1.1458-1.8125 2.75-3.25 4.8125-4.3125 2.0625-1.0833 4.5-1.625 7.3125-1.625h9.625c2.8125 0 5.25.5417 7.3125 1.625 2.0833 1.0625 3.6875 2.5 4.8125 4.3125 1.125 1.7917 1.6875 3.7812 1.6875 5.9688v19c0 2.1666-.5625 4.1562-1.6875 5.9687s-2.7292 3.2604-4.8125 4.3437c-2.0625 1.0626-4.5 1.5938-7.3125 1.5938zm1.75-14.1562h8.375l3.125-.375 2.0625-1.9688.4375-2.6875v-4.75l-.4375-2.625-.7812-.75.7812-.7187.4375-2.625v-4.2813l-.4375-2.625-2-2-3.1875-.4375h-8.375l-3.2187.4375-1.9688 2-.4688 2.625v4.2813l.4688 2.625.75.7187-.75.75-.4688 2.625v4.75l.4688 2.6875 2.0312 1.9688zm.1875-14.8438-2.0625-.3125-.4375-1.8437v-3.4688l.3125-1.7188 2.1875-.3437h8l2.1562.3437.3438 1.7188v3.4688l-.4688 1.8437-2.0312.3125zm0 11.5312-2.0625-.3124-.4375-1.875v-3.9688l.3125-1.7188 2.1875-.3124h8l2.1562.3124.3438 1.7188v3.9688l-.4688 1.875-2.0312.3124z" fill="#093faa"/></g></svg>